<!-- Generated by IcoMoon.io -->
<svg version="1.1"  width="17" height="35" viewBox="0 0 32 32">
<title>Dollar-</title>
<path fill="#000000" d="M24.45 14.1h-16.9c-1.55 0-2.8-1.25-2.8-2.8s1.25-2.8 2.8-2.8h16.9c1.55 0 2.8 1.25 2.8 2.8h3.75c0-3.6-2.95-6.55-6.55-6.55h-6.55v-3.75h-3.75v3.75h-6.6c-3.6 0-6.55 2.95-6.55 6.55s2.95 6.55 6.55 6.55h16.9c1.55 0 2.8 1.25 2.8 2.8s-1.25 2.8-2.8 2.8h-16.9c-1.55 0-2.8-1.25-2.8-2.8h-3.75c0 3.6 2.95 6.55 6.55 6.55h6.55v3.8h3.75v-3.75h6.55c3.6 0 6.55-2.95 6.55-6.55s-2.9-6.6-6.5-6.6z"></path>
</svg>
